<svg width="60" height="48" viewBox="0 0 60 48" fill="none" xmlns="http://www.w3.org/2000/svg">
<path d="M6 1H56V23V43H59V46H56H6H2V43H6V1Z" fill="#F6C96B"/>
<path d="M59.0267 42.4219H56.5368V9.45667V0.973384C56.5368 0.435832 56.101 0 55.5634 0H4.43316C3.8956 0 3.45977 0.435832 3.45977 0.973384V9.45655V42.4218H0.973384C0.435833 42.4218 0 42.8576 0 43.3952V46.0728C0 46.6104 0.435833 47.0462 0.973384 47.0462H59.0266C59.5642 47.0462 60 46.6104 60 46.0728V43.3952C60.0001 42.8577 59.5642 42.4219 59.0267 42.4219ZM50.6324 10.4301V12.7257H9.3642V10.4301H50.6324ZM50.6324 23.1546V25.4523H9.3642V23.1546H50.6324ZM9.3642 21.2078V18.9137H50.6324V21.2078H9.3642ZM50.6324 27.3991V29.6931H9.3642V27.3991H50.6324ZM50.6324 31.6398V33.9342H9.3642V31.6398H50.6324ZM50.6324 16.9669H9.3642V14.6724H50.6324V16.9669ZM9.3642 35.881H50.6324V38.1766H9.3642V35.881ZM9.3642 40.1235H50.6324V42.422H9.3642V40.1235ZM52.5792 42.4219V26.426V10.4301H54.5899V42.4219H52.5792ZM5.40654 1.94677H54.5901V8.48316H5.40654V1.94677ZM5.40654 10.4301H7.41743V42.4219H5.40654V10.4301ZM58.0533 45.0996H1.94677V44.3687H4.43084L4.43328 44.3688H8.39093H51.6059H55.5634L55.5659 44.3687H58.0533V45.0996Z" fill="black"/>
<rect x="15" y="12" width="31" height="29" fill="#F6C96B"/>
<path d="M29.8244 24.6719H31.3457C31.3159 23.1974 30.0588 22.1534 28.2008 22.1534C26.3684 22.1534 24.992 23.1847 24.9963 24.7273C24.9963 25.9801 25.8869 26.7003 27.323 27.071L28.3159 27.3267C29.2576 27.5653 29.8798 27.8594 29.8841 28.5369C29.8798 29.2827 29.1724 29.7812 28.1412 29.7812C27.1525 29.7812 26.3855 29.3381 26.3216 28.4219H24.7662C24.8301 30.1562 26.1213 31.1321 28.1539 31.1321C30.2463 31.1321 31.4608 30.0881 31.465 28.5497C31.4608 27.0369 30.2122 26.3466 28.8997 26.0355L28.0815 25.831C27.3656 25.6605 26.59 25.358 26.5985 24.6293C26.6028 23.973 27.1909 23.4915 28.1795 23.4915C29.1213 23.4915 29.7434 23.9304 29.8244 24.6719ZM36.339 22.2727H34.8347L32.6657 23.6662V25.1151L34.7069 23.8111H34.758V31H36.339V22.2727Z" fill="black"/>
</svg>
